<svg xmlns="http://www.w3.org/2000/svg" viewBox="0 0 1600 900" role="img" aria-labelledby="title desc"><title id="title">Lee-Wuh LWA hero fallback</title><desc id="desc">A premium Afro-futurist anime mascot hero placeholder for LWA.</desc><defs><radialGradient id="g1" cx="50%" cy="35%" r="70%"><stop offset="0%" stop-color="#6d3bff" stop-opacity="0.55"/><stop offset="45%" stop-color="#201244" stop-opacity="0.7"/><stop offset="100%" stop-color="#050506"/></radialGradient><radialGradient id="g2" cx="70%" cy="42%" r="45%"><stop offset="0%" stop-color="#c9a24a" stop-opacity="0.8"/><stop offset="55%" stop-color="#c9a24a" stop-opacity="0.12"/><stop offset="100%" stop-color="#c9a24a" stop-opacity="0"/></radialGradient><linearGradient id="gold" x1="0" x2="1"><stop offset="0%" stop-color="#7a4f10"/><stop offset="45%" stop-color="#f1ce78"/><stop offset="100%" stop-color="#9a6519"/></linearGradient></defs><rect width="1600" height="900" fill="url(#g1)"/><rect width="1600" height="900" fill="url(#g2)"/><circle cx="800" cy="455" r="265" fill="#0a0a0b" stroke="url(#gold)" stroke-width="10"/><circle cx="800" cy="455" r="215" fill="#171019" stroke="#6d3bff" stroke-opacity="0.7" stroke-width="5"/><path d="M560 650c90-95 390-95 480 0" fill="none" stroke="url(#gold)" stroke-width="28" stroke-linecap="round"/><circle cx="710" cy="410" r="42" fill="#f5f1e8"/><circle cx="890" cy="410" r="42" fill="#f5f1e8"/><circle cx="710" cy="410" r="17" fill="#6d3bff"/><circle cx="890" cy="410" r="17" fill="#6d3bff"/><path d="M640 330c-55-95 0-185 85-135M730 285c-10-120 95-170 155-75M890 300c40-115 165-130 185-30M985 370c120-45 190 55 105 130M610 370c-120-45-190 55-105 130" fill="none" stroke="#2a170d" stroke-width="52" stroke-linecap="round"/><path d="M640 330c-55-95 0-185 85-135M730 285c-10-120 95-170 155-75M890 300c40-115 165-130 185-30M985 370c120-45 190 55 105 130M610 370c-120-45-190 55-105 130" fill="none" stroke="url(#gold)" stroke-width="14" stroke-linecap="round"/><rect x="603" y="545" width="394" height="95" rx="46" fill="#070708" stroke="url(#gold)" stroke-width="6"/><text x="800" y="610" text-anchor="middle" font-family="Arial Black, Impact, sans-serif" font-size="42" fill="#e9c77b" letter-spacing="6">LEE-WUH</text><text x="800" y="735" text-anchor="middle" font-family="Arial, sans-serif" font-size="46" font-weight="700" fill="#f5f1e8">The Final Boss of Lazy Content</text><text x="800" y="790" text-anchor="middle" font-family="Arial, sans-serif" font-size="24" fill="#b8b3a7">LWA creator engine mascot layer</text></svg>