<svg width="320" height="78" viewBox="0 0 320 78" fill="none" xmlns="http://www.w3.org/2000/svg">
  <rect x="4" y="4" width="68" height="68" rx="22" fill="url(#bg)" />
  <rect x="4.5" y="4.5" width="67" height="67" rx="21.5" stroke="url(#stroke)" stroke-opacity="0.9" />
  <circle cx="38" cy="34" r="18" stroke="url(#omega)" stroke-width="5.5" stroke-linecap="round" stroke-dasharray="92 18" transform="rotate(44 38 34)"/>
  <path d="M24.5 54.5H32.5V47C28.96 45.159 26.5 41.545 26.5 37.25C26.5 30.209 32.209 24.5 39.25 24.5C46.291 24.5 52 30.209 52 37.25C52 41.545 49.54 45.159 46 47V54.5H54.5" stroke="url(#omega)" stroke-width="5" stroke-linecap="round" stroke-linejoin="round"/>
  <text x="92" y="34" fill="#F4DFC1" font-family="Georgia, Times New Roman, serif" font-size="26" font-weight="700" letter-spacing="4">LWA</text>
  <text x="92" y="58" fill="#B7A58A" font-family="Inter, Arial, sans-serif" font-size="13" font-weight="600" letter-spacing="3.2">CLIPPING INTELLIGENCE</text>
  <defs>
    <linearGradient id="bg" x1="12" y1="10" x2="66" y2="70" gradientUnits="userSpaceOnUse">
      <stop stop-color="#17120C"/>
      <stop offset="0.52" stop-color="#0C0907"/>
      <stop offset="1" stop-color="#040303"/>
    </linearGradient>
    <linearGradient id="stroke" x1="13" y1="10" x2="66" y2="70" gradientUnits="userSpaceOnUse">
      <stop stop-color="#FFF4D4"/>
      <stop offset="0.34" stop-color="#D9B56D"/>
      <stop offset="0.72" stop-color="#9C6B25"/>
      <stop offset="1" stop-color="#F2D9A2"/>
    </linearGradient>
    <linearGradient id="omega" x1="20" y1="18" x2="57" y2="57" gradientUnits="userSpaceOnUse">
      <stop stop-color="#FFF4D4"/>
      <stop offset="0.42" stop-color="#E6C27A"/>
      <stop offset="0.82" stop-color="#A97729"/>
      <stop offset="1" stop-color="#F1D8A1"/>
    </linearGradient>
  </defs>
</svg>
