<svg width="96" height="96" viewBox="0 0 96 96" fill="none" xmlns="http://www.w3.org/2000/svg">
  <rect x="6" y="6" width="84" height="84" rx="26" fill="url(#bg)" />
  <rect x="6.5" y="6.5" width="83" height="83" rx="25.5" stroke="url(#stroke)" stroke-opacity="0.7" />
  <path d="M30 24C30 21.7909 31.7909 20 34 20H44V62H67C69.2091 62 71 63.7909 71 66V76H34C31.7909 76 30 74.2091 30 72V24Z" fill="white"/>
  <path d="M56 20H72V36H66C60.4772 36 56 40.4772 56 46V20Z" fill="url(#cut)"/>
  <defs>
    <linearGradient id="bg" x1="16" y1="14" x2="82" y2="88" gradientUnits="userSpaceOnUse">
      <stop stop-color="#111A34"/>
      <stop offset="0.52" stop-color="#0D1430"/>
      <stop offset="1" stop-color="#091022"/>
    </linearGradient>
    <linearGradient id="stroke" x1="16" y1="12" x2="84" y2="90" gradientUnits="userSpaceOnUse">
      <stop stop-color="#A855F7"/>
      <stop offset="0.48" stop-color="#2563FF"/>
      <stop offset="1" stop-color="#22D3EE"/>
    </linearGradient>
    <linearGradient id="cut" x1="58" y1="22" x2="72" y2="40" gradientUnits="userSpaceOnUse">
      <stop stop-color="#A855F7"/>
      <stop offset="1" stop-color="#22D3EE"/>
    </linearGradient>
  </defs>
</svg>
