<svg width="96" height="96" viewBox="0 0 96 96" fill="none" xmlns="http://www.w3.org/2000/svg">
  <rect x="6" y="6" width="84" height="84" rx="26" fill="url(#bg)" />
  <rect x="6.5" y="6.5" width="83" height="83" rx="25.5" stroke="url(#stroke)" stroke-opacity="0.9" />
  <circle cx="48" cy="44" r="24" stroke="url(#omega)" stroke-width="7" stroke-linecap="round" stroke-dasharray="122 24" transform="rotate(44 48 44)"/>
  <path d="M30 68H40V58.5C34.882 55.945 31.5 50.613 31.5 44.5C31.5 35.94 38.44 29 47 29C55.56 29 62.5 35.94 62.5 44.5C62.5 50.613 59.118 55.945 54 58.5V68H66" stroke="url(#omega)" stroke-width="6.5" stroke-linecap="round" stroke-linejoin="round"/>
  <text x="48" y="83" text-anchor="middle" fill="#E8C67E" font-family="Georgia, Times New Roman, serif" font-size="10" font-weight="700" letter-spacing="3.4">LWA</text>
  <defs>
    <linearGradient id="bg" x1="12" y1="10" x2="82" y2="88" gradientUnits="userSpaceOnUse">
      <stop stop-color="#17120C"/>
      <stop offset="0.55" stop-color="#0C0907"/>
      <stop offset="1" stop-color="#040303"/>
    </linearGradient>
    <linearGradient id="stroke" x1="15" y1="8" x2="84" y2="90" gradientUnits="userSpaceOnUse">
      <stop stop-color="#F5E3B7"/>
      <stop offset="0.38" stop-color="#D9B56D"/>
      <stop offset="0.72" stop-color="#9C6B25"/>
      <stop offset="1" stop-color="#F0D39A"/>
    </linearGradient>
    <linearGradient id="omega" x1="24" y1="18" x2="69" y2="72" gradientUnits="userSpaceOnUse">
      <stop stop-color="#FFF4D4"/>
      <stop offset="0.4" stop-color="#E6C27A"/>
      <stop offset="0.78" stop-color="#A97729"/>
      <stop offset="1" stop-color="#F1D8A1"/>
    </linearGradient>
  </defs>
</svg>
